<svg viewBox="0 0 880 680" xmlns="http://www.w3.org/2000/svg" font-family="PingFang SC, Microsoft JhengHei, sans-serif">
<rect width="880" height="680" fill="#f7f4ec"/>
<rect x="240" y="552" width="76" height="76" rx="10" fill="rgba(204,200,192,0.15)" stroke="#b0a890" stroke-width="1.2" stroke-dasharray="5,4"/>
<text x="248" y="570" font-size="11pt" fill="#7a6f55">Carcassonne Surface</text>
<rect x="240" y="477" width="76" height="76" rx="10" fill="rgba(181,173,160,0.15)" stroke="#b0a890" stroke-width="1.2" stroke-dasharray="5,4"/>
<text x="248" y="495" font-size="11pt" fill="#7a6f55">Tower of Silence</text>
<rect x="52" y="377" width="638" height="76" rx="10" fill="rgba(156,149,136,0.15)" stroke="#b0a890" stroke-width="1.2" stroke-dasharray="5,4"/>
<text x="60" y="395" font-size="11pt" fill="#7a6f55">Abandoned Prison</text>
<rect x="240" y="52" width="138" height="251" rx="10" fill="rgba(139,126,107,0.15)" stroke="#b0a890" stroke-width="1.2" stroke-dasharray="5,4"/>
<text x="248" y="70" font-size="11pt" fill="#7a6f55">Black Dock</text>
<line x1="278" y1="590" x2="278" y2="515" stroke="#888" stroke-width="2" stroke-dasharray="none"/>
<line x1="278" y1="515" x2="90" y2="415" stroke="#888" stroke-width="2" stroke-dasharray="none"/>
<line x1="278" y1="515" x2="278" y2="415" stroke="#888" stroke-width="2" stroke-dasharray="none"/>
<line x1="278" y1="515" x2="465" y2="415" stroke="#888" stroke-width="2" stroke-dasharray="none"/>
<line x1="278" y1="515" x2="652" y2="415" stroke="#888" stroke-width="2" stroke-dasharray="none"/>
<line x1="278" y1="415" x2="278" y2="265" stroke="#888" stroke-width="2" stroke-dasharray="none"/>
<line x1="278" y1="265" x2="278" y2="165" stroke="#888" stroke-width="2" stroke-dasharray="none"/>
<line x1="278" y1="165" x2="340" y2="90" stroke="#888" stroke-width="2" stroke-dasharray="none"/>
<circle cx="278" cy="590" r="30" fill="#6fae6f" stroke="#333" stroke-width="2.2"/>
<text x="278" y="588" text-anchor="middle" font-size="10.5pt" fill="#222">Tower of Silence Surface Entrance</text>
<circle cx="278" cy="515" r="30" fill="#cdbf9a" stroke="#333" stroke-width="2.2"/>
<text x="278" y="513" text-anchor="middle" font-size="10.5pt" fill="#222">Descent Passage</text>
<text x="278" y="529" text-anchor="middle" font-size="8.5pt" fill="#a33">Unused for 200 years</text>
<circle cx="90" cy="415" r="30" fill="#cdbf9a" stroke="#a33" stroke-width="2.2"/>
<text x="90" y="413" text-anchor="middle" font-size="10.5pt" fill="#222">Cell Block A</text>
<text x="90" y="429" text-anchor="middle" font-size="8.5pt" fill="#a33">Mutant Lurkers ×3</text>
<text x="90" y="457" text-anchor="middle" font-size="8pt" fill="#a33">Unexplored</text>
<circle cx="278" cy="415" r="30" fill="#cdbf9a" stroke="#a33" stroke-width="2.2"/>
<text x="278" y="413" text-anchor="middle" font-size="10.5pt" fill="#222">Trapped Penitents Zone</text>
<text x="278" y="457" text-anchor="middle" font-size="8pt" fill="#a33">Unexplored</text>
<circle cx="465" cy="415" r="30" fill="#c04040" stroke="#a33" stroke-width="2.2"/>
<text x="465" y="413" text-anchor="middle" font-size="10.5pt" fill="#222">Marcus's Domain</text>
<text x="465" y="429" text-anchor="middle" font-size="8.5pt" fill="#a33">Mutant Tyrant CR2+ | Oratory...</text>
<text x="465" y="457" text-anchor="middle" font-size="8pt" fill="#a33">Unexplored</text>
<circle cx="652" cy="415" r="30" fill="#cdbf9a" stroke="#a33" stroke-width="2.2"/>
<text x="652" y="413" text-anchor="middle" font-size="10.5pt" fill="#222">Warp Rift</text>
<text x="652" y="429" text-anchor="middle" font-size="8.5pt" fill="#a33">200-year seal failed | Faith Limit...</text>
<text x="652" y="457" text-anchor="middle" font-size="8pt" fill="#a33">Unexplored</text>
<circle cx="278" cy="265" r="30" fill="#cdbf9a" stroke="#a33" stroke-width="2.2"/>
<text x="278" y="263" text-anchor="middle" font-size="10.5pt" fill="#222">Deeper</text>
<text x="278" y="307" text-anchor="middle" font-size="8pt" fill="#a33">Unexplored</text>
<circle cx="278" cy="165" r="30" fill="#cdbf9a" stroke="#a33" stroke-width="2.2"/>
<text x="278" y="163" text-anchor="middle" font-size="10.5pt" fill="#222">Black Dock</text>
<text x="278" y="179" text-anchor="middle" font-size="8.5pt" fill="#a33">Victor Black awaits the "result"</text>
<text x="278" y="207" text-anchor="middle" font-size="8pt" fill="#a33">Unexplored</text>
<circle cx="340" cy="90" r="30" fill="#cdbf9a" stroke="#a33" stroke-width="2.2"/>
<text x="340" y="88" text-anchor="middle" font-size="10.5pt" fill="#222">Victor's Whisper</text>
<text x="340" y="104" text-anchor="middle" font-size="8.5pt" fill="#a33">Refuse/Accept/Deceive fork</text>
<text x="340" y="132" text-anchor="middle" font-size="8pt" fill="#a33">Unexplored</text>
<rect x="705" y="550" width="160" height="120" rx="6" fill="#fff" stroke="#999" stroke-width="1"/>
<text x="715" y="570" font-size="10pt" font-weight="bold" fill="#333">Legend</text>
<circle cx="723" cy="586" r="8" fill="#6fae6f" stroke="#333" stroke-width="1.5"/>
<text x="739" y="590" font-size="9.5pt" fill="#333">Entrance</text>
<circle cx="723" cy="601" r="8" fill="#5b9bd5" stroke="#333" stroke-width="1.5"/>
<text x="739" y="605" font-size="9.5pt" fill="#333">Extraction</text>
<circle cx="723" cy="616" r="8" fill="#c04040" stroke="#333" stroke-width="1.5"/>
<text x="739" y="620" font-size="9.5pt" fill="#333">Boss</text>
<circle cx="723" cy="631" r="8" fill="#e08a2b" stroke="#333" stroke-width="1.5"/>
<text x="739" y="635" font-size="9.5pt" fill="#333">Environmental Hazard</text>
<circle cx="723" cy="646" r="8" fill="#9aa0a6" stroke="#333" stroke-width="1.5"/>
<text x="739" y="650" font-size="9.5pt" fill="#333">Staging Area</text>
<circle cx="723" cy="661" r="8" fill="#cdbf9a" stroke="#333" stroke-width="1.5"/>
<text x="739" y="665" font-size="9.5pt" fill="#333">Zone</text>
<g transform="translate(825,55)"><circle r="26" fill="#f5f0e0" stroke="#333" stroke-width="2"/><text x="0" y="-12" text-anchor="middle" font-size="11pt" font-weight="bold" fill="#333">N</text><line x1="0" y1="-22" x2="0" y2="-8" stroke="#c00" stroke-width="2"/></g>
</svg>